# xmcd
#
# Track frame offsets: 
#        150
#        9872
#        36660
#        72207
#        92122
#        131860
#        147915
#
# Disc length: 2452 seconds
#
# Revision: 0
# Processed by: cddbd v1.5.2PL0 Copyright (c) Steve Scherf et al.
# Submitted via: ExactAudioCopy v0.99pb3
#
DISCID=61099207
DTITLE=Roy Buchanan - You're Not Alone
DYEAR=1978
DGENRE=Blues
TTITLE0=The Opening ... Miles From Earth
TTITLE1=Turn To Stone
TTITLE2=Fly ... Night Bird
TTITLE3=1841 Shuffle
TTITLE4=Down By The River
TTITLE5=Supernova
TTITLE6=You're Not Alone
EXTD=
EXTT0=
EXTT1=
EXTT2=
EXTT3=
EXTT4=
EXTT5=
EXTT6=
PLAYORDER=
